<svg width="153" height="48" viewBox="0 0 153 48" fill="none" xmlns="http://www.w3.org/2000/svg">
<path d="M0.534912 37.8285V30.4798H1.93305V37.7361C1.95437 40.464 3.39252 41.9975 5.79988 41.9975C8.11644 41.9975 9.58764 40.5909 9.60977 37.8285V30.4798H11.0069V37.7198C11.0069 41.4006 8.905 43.3159 5.75953 43.3159C2.65359 43.3159 0.534912 41.4006 0.534912 37.8285Z" fill="#92837B"></path>
<path d="M24.1309 30.4798V43.1021H23.0162L15.0858 32.7762V43.1021H13.6937V30.4798H15.0006L22.7373 40.5609V30.4798H24.1309Z" fill="#92837B"></path>
<path d="M26.9686 30.4798H28.3651V43.1021H26.9686V30.4798Z" fill="#92837B"></path>
<path d="M76.1704 30.4798H77.5669V43.1021H76.1704V30.4798Z" fill="#92837B"></path>
<path d="M29.5818 30.4798H31.1339L35.5255 41.2906L39.9319 30.4798H41.4303L36.1235 43.1021H34.8905L29.5818 30.4798Z" fill="#92837B"></path>
<path d="M42.6478 30.4798H51.6942V31.8031H44.0453V36.0958H50.7769V37.4158H44.0453V41.7941H51.6942V43.1021H42.6478V30.4798Z" fill="#92837B"></path>
<path d="M72.5924 39.8323C72.5924 38.6623 71.9734 37.9906 69.3831 37.4302C66.5455 36.8004 65.2392 35.8621 65.2392 33.7819C65.2392 33.7819 65.1409 30.3021 69.2972 30.3021C71.0946 30.3021 72.3815 30.8229 73.6335 31.8526L72.8205 32.9559C71.6805 31.9997 70.5303 31.6209 69.263 31.6209C66.5165 31.6209 66.6353 33.6582 66.6353 33.6582C66.6353 34.8519 67.268 35.5224 69.9849 36.1147C72.733 36.7291 74.0022 37.7569 74.0022 39.6888C74.0022 39.6888 74.1981 43.3149 69.7909 43.3149C67.8323 43.3149 66.2288 42.6302 64.748 41.277L65.6102 40.23C66.8976 41.4182 68.1318 41.9975 69.8407 41.9975C72.7232 41.9975 72.5924 39.8323 72.5924 39.8323Z" fill="#92837B"></path>
<path d="M82.9755 31.8031H79.0577V30.4798H88.3018V31.8031H84.3821V43.1021H82.9755V31.8031Z" fill="#92837B"></path>
<path d="M92.806 38.1142L88.2068 30.4798H89.9004L93.5292 36.8004L97.199 30.4798H98.8217L94.2166 38.1005V43.1021H92.806V38.1142Z" fill="#92837B"></path>
<path d="M62.1128 43.1021H63.7765L60.6554 37.5518C62.2846 37.1847 63.4198 36.1081 63.4198 34.1086C63.4198 31.6065 61.6487 30.4798 59.3517 30.4798H54.0104V43.1021H55.4079V37.6927H59.1668L62.1128 43.1021ZM55.4079 31.8031H59.3413C61.0785 31.8031 62.0106 32.5838 62.0106 34.1073C62.0106 35.6336 61.0785 36.3724 59.3413 36.3724H55.4079V31.8031Z" fill="#92837B"></path>
<path d="M85.9592 5.24014V25.0728H89.3491V20.8185C89.4598 20.6948 90.7948 19.2374 91.1554 18.83L94.8557 25.0728H98.8269L93.3847 16.3806L98.6144 10.649H94.4411L89.3491 16.4457V5.24014H85.9592Z" fill="#92837B"></path>
<path d="M62.0096 28.6128C63.9288 28.6128 65.4767 28.0377 66.6125 26.9013C67.7463 25.77 68.3185 24.1343 68.3185 22.3349V10.6491H65.187C65.187 10.6491 65.0353 11.3073 65.0353 11.7281C64.1189 10.8906 62.9746 10.4714 61.595 10.4714C60.08 10.4714 58.8726 10.9039 58.0056 11.7554C56.8984 12.8444 56.338 14.2263 56.338 17.0121C56.338 19.7986 56.8965 21.1772 58.0011 22.2668C58.884 23.1351 60.0781 23.5784 61.5569 23.5784C62.9089 23.5784 64.0297 23.1443 64.9286 22.3349C64.9286 22.8605 64.9286 22.7654 64.9286 22.7654C64.9286 23.7203 64.6949 24.4936 64.2354 25.0599C63.7121 25.7127 62.9414 26.0284 61.8895 26.0284C59.8809 26.0284 58.8258 24.7064 58.8258 24.7064L56.9261 26.6389C56.9261 26.6389 58.3076 28.6128 62.0096 28.6128ZM64.486 19.3088C64.0837 20.1319 63.3853 20.5322 62.3413 20.5322C61.2985 20.5322 60.5995 20.1319 60.1998 19.3088C59.8844 18.7006 59.7299 18.3165 59.7299 17.0069C59.7299 15.6973 59.8844 15.3055 60.1972 14.6865C60.5995 13.8767 61.2972 13.4849 62.3413 13.4849C63.3853 13.4849 64.0837 13.8767 64.486 14.6852C64.7795 15.3025 64.9286 15.6973 64.9286 17.0069C64.9286 18.3165 64.7795 18.7041 64.486 19.3088Z" fill="#92837B"></path>
<path d="M48.0925 28.6128C50.0145 28.6128 51.5617 28.0377 52.6968 26.9013C53.8296 25.77 54.4036 24.1343 54.4036 22.3349V10.6491H51.2707C51.2707 10.6491 51.1203 11.3073 51.1203 11.7281C50.2021 10.8906 49.0589 10.4714 47.6795 10.4714C46.1646 10.4714 44.9562 10.9039 44.0903 11.7554C42.9825 12.8444 42.4214 14.2263 42.4214 17.0121C42.4214 19.7986 42.9807 21.1772 44.0849 22.2668C44.9695 23.1351 46.1631 23.5784 47.639 23.5784C48.9921 23.5784 50.1124 23.1443 51.0129 22.3349C51.0129 22.8605 51.0129 22.7654 51.0129 22.7654C51.0129 23.7203 50.7791 24.4936 50.3192 25.0599C49.7961 25.7127 49.0248 26.0284 47.9739 26.0284C45.9636 26.0284 44.9108 24.7064 44.9108 24.7064L43.0111 26.6389C43.0111 26.6389 44.3913 28.6128 48.0925 28.6128ZM50.5694 19.3088C50.1674 20.1319 49.4682 20.5322 48.4269 20.5322C47.3817 20.5322 46.6838 20.1319 46.284 19.3088C45.9677 18.7006 45.8139 18.3165 45.8139 17.0069C45.8139 15.6973 45.9677 15.3055 46.2809 14.6865C46.6838 13.8767 47.3799 13.4849 48.4269 13.4849C49.4682 13.4849 50.1674 13.8767 50.5694 14.6852C50.8629 15.3025 51.0129 15.6973 51.0129 17.0069C51.0129 18.3165 50.8629 18.7041 50.5694 19.3088Z" fill="#92837B"></path>
<path d="M20.3886 10.4712C18.5909 10.4712 17.0987 11.0622 15.9523 12.2239C14.8096 13.3851 14.2314 15.2741 14.2314 17.8376C14.2314 20.4217 14.8096 22.3168 15.9523 23.4819C17.0987 24.6418 18.5889 25.2322 20.3886 25.2322C22.2047 25.2322 23.7058 24.6418 24.8512 23.4819C25.9922 22.3168 26.5719 20.4201 26.5719 17.8376C26.5719 15.2741 25.9922 13.3851 24.8512 12.2239C23.704 11.0622 22.2047 10.4712 20.3886 10.4712ZM22.2858 21.4719C21.7765 21.9764 21.1554 22.2205 20.3886 22.2205C19.6395 22.2205 19.025 21.9764 18.5153 21.4719C17.9224 20.8868 17.622 19.6618 17.622 17.8376C17.622 16.0128 17.9224 14.7917 18.5153 14.2046C19.0087 13.7213 19.6176 13.4847 20.3886 13.4847C21.1718 13.4847 21.7943 13.7213 22.2858 14.2046C22.8821 14.7917 23.1826 16.0128 23.1826 17.8376C23.1826 19.6618 22.8821 20.8868 22.2858 21.4719Z" fill="#92837B"></path>
<path d="M79.7392 10.6489V19.3799C79.7392 20.3283 79.4918 21.0443 79.0037 21.511C78.5048 21.9887 77.8841 22.2205 77.0991 22.2205C76.3337 22.2205 75.7433 22.0011 75.2916 21.5559C74.7933 21.0625 74.5395 20.3289 74.5395 19.3799V10.6489H71.1489V19.7861C71.1489 21.5494 71.6491 22.9345 72.6388 23.8959C73.5511 24.7831 74.7761 25.2322 76.2796 25.2322C77.6491 25.2322 78.8006 24.7752 79.7392 23.974C79.7392 24.3681 79.8876 25.0727 79.8876 25.0727H83.1307V10.6489H79.7392Z" fill="#92837B"></path>
<path d="M35.3211 10.4713C33.9492 10.4713 32.7906 10.9189 31.8315 11.728C31.8315 11.3336 31.684 10.649 31.684 10.649H28.5083V25.0728H31.8315V16.3256C31.8315 15.3782 32.0944 14.6466 32.62 14.1519C33.0932 13.7041 33.7113 13.4848 34.5075 13.4848C35.2991 13.4848 35.8965 13.7015 36.3339 14.1435C36.8418 14.6297 37.0984 15.3568 37.0984 16.3256V25.0728H40.4854V15.9204C40.4854 14.1562 39.9825 12.7714 38.9868 11.8087C38.0684 10.9197 36.8356 10.4713 35.3211 10.4713Z" fill="#92837B"></path>
<path d="M8.90708 11.7279C8.01388 10.9389 6.68589 10.4712 5.28303 10.4712C3.7679 10.4712 2.55218 10.9148 1.66647 11.7826C0.545618 12.8885 0 14.8679 0 17.8376C0 20.8288 0.541388 22.8173 1.65622 23.9206C2.53558 24.7909 3.75407 25.2322 5.27864 25.2322C6.66148 25.2322 7.99257 24.8084 8.90708 23.974C8.90708 24.3922 9.05516 25.0727 9.05516 25.0727H12.2971V5.2401H8.90708V11.7279ZM8.05473 21.4719C7.54442 21.9764 6.92444 22.2205 6.15605 22.2205C5.40833 22.2205 4.79421 21.9764 4.28309 21.4719C3.68947 20.8868 3.38875 19.6618 3.38875 17.8376C3.38875 16.0128 3.68947 14.7917 4.28309 14.2046C4.77761 13.7213 5.38881 13.4847 6.15605 13.4847C6.94332 13.4847 7.56314 13.7213 8.05473 14.2046C8.65063 14.7917 8.95183 16.0128 8.95183 17.8376C8.95183 19.6618 8.65063 20.8868 8.05473 21.4719Z" fill="#92837B"></path>
<path d="M115.457 27.832L103.319 31.3869C102.053 31.7582 101.82 32.7756 102.805 33.6475L106.505 36.9205C107.81 38.0531 108.978 38.1872 110.468 37.4926L119.79 33.144V32.0381L115.457 27.832Z" fill="#F68313"></path>
<path d="M119.79 22.6925L108.292 8.81972C107.425 7.78284 106.474 7.95712 106.064 9.25224L104.513 14.2484C104.126 15.4994 104.276 16.9626 105.521 18.1847L115.457 27.832L119.79 26.5618V22.6925Z" fill="#F68313"></path>
<path d="M119.79 26.5617L115.457 27.832L119.79 32.0381V26.5617Z" fill="#F14624"></path>
<path d="M120.942 33.1678L130.404 46.8742C131.149 47.9533 132.232 47.9826 132.917 46.7547L134.864 43.2571C135.715 41.6858 135.508 40.5409 134.441 39.3862L130.361 34.7817L120.942 33.1678Z" fill="#F14624"></path>
<path d="M130.361 34.7817L145.066 37.3039C146.792 37.5936 147.911 37.1334 148.945 35.8655L152.568 31.426C153.397 30.4116 152.997 29.5491 151.675 29.5133L129.665 28.9077C129.318 30.0998 128.665 31.1223 127.778 31.865L130.361 34.7817Z" fill="#FAB80A"></path>
<path d="M148.79 21.6355C150.04 21.1643 150.183 20.212 149.071 19.4706L144.259 16.2858L129.883 27.8673C129.835 28.2259 129.763 28.5748 129.665 28.9077L148.79 21.6355Z" fill="#F14624"></path>
<path d="M144.259 16.2857C143.298 15.6335 142.044 15.6426 140.708 16.3619L128.699 22.8676C129.495 23.9475 129.947 25.3365 129.947 26.8759C129.947 27.215 129.925 27.5463 129.883 27.8672L144.259 16.2857Z" fill="#F68313"></path>
<path d="M140.708 16.3617C142.044 15.6424 143.298 15.6333 144.259 16.2855L147.816 13.4164C149.172 12.3271 149.499 11.2703 149.105 9.60973L147.616 3.62112C147.299 2.35382 146.304 2.09606 145.401 3.05093L127.71 21.8289C128.08 22.1306 128.412 22.4785 128.699 22.8674L140.708 16.3617Z" fill="#FAB80A"></path>
<path d="M132.809 8.05523C133.376 6.52204 133.085 5.31006 131.893 4.18807L127.983 0.512602C127.025 -0.386293 126.041 -0.0715809 125.799 1.21167L124.793 6.54092C125.913 7.16513 126.289 8.26694 126.205 9.65482L125.454 20.7366C126.305 20.9312 127.068 21.3087 127.71 21.8291L132.809 8.05523Z" fill="#F14624"></path>
<path d="M120.142 3.99725C118.976 3.36409 118.131 3.94046 118.263 5.23771L119.79 20.5835H122.141L124.793 6.54081L120.142 3.99725Z" fill="#FAB80A"></path>
<path d="M126.205 9.65483C126.289 8.26695 125.913 7.16514 124.793 6.54092L122.141 20.5836H124.089C124.565 20.5836 125.022 20.6376 125.454 20.7366L126.205 9.65483Z" fill="#F68313"></path>
<path d="M127.778 31.8651C126.801 32.6845 125.539 33.1678 124.089 33.1678H120.942L130.361 34.7817L127.778 31.8651Z" fill="#F68313"></path>
</svg>